# xmcd
# 
# Track frame offsets:
#     182
#     19002
#     37562
#     52527
#     67745
#     87200
#     105695
#     122342
#     139592
#     156980
# 
# Disc length: 2307
# 
# Revision: 4
# Processed by: cddbd v1.5.2PL0 Copyright (c) Steve Scherf et al.
# Submitted via: fre:ac v1.0.31
# 
DISCID=6509010a
DTITLE=Alabama - Alabama Christmas
DYEAR=1985
DGENRE=Christmas
TTITLE0=Santa Claus (I Still Believe In You)
TTITLE1=Joseph And Mary's Boy
TTITLE2=Happy Holidays
TTITLE3=Christmas Memories
TTITLE4=Tonight Is Christmas
TTITLE5=Thistlehair The Christmas Bear
TTITLE6=Tennessee Christmas
TTITLE7=A Candle In The Window
TTITLE8=Homecoming Christmas
TTITLE9=Christmas In Dixie
EXTD=
EXTT0=
EXTT1=
EXTT2=
EXTT3=
EXTT4=
EXTT5=
EXTT6=
EXTT7=
EXTT8=
EXTT9=
PLAYORDER=
